<svg width="19" height="15" viewBox="0 0 19 15" fill="none" xmlns="http://www.w3.org/2000/svg">
<path d="M16.0023 1.19437C14.7975 0.641549 13.5055 0.234254 12.1546 0.000978559C12.13 -0.00352358 12.1054 0.00772751 12.0928 0.0302302C11.9266 0.325761 11.7426 0.711304 11.6137 1.01434C10.1607 0.796821 8.71527 0.796821 7.29213 1.01434C7.16322 0.704569 6.97248 0.325761 6.80557 0.0302302C6.7929 0.00847831 6.76833 -0.00277278 6.74373 0.000978559C5.39362 0.233508 4.10163 0.640804 2.89606 1.19437C2.88563 1.19887 2.87668 1.20638 2.87074 1.21612C0.420115 4.87731 -0.251215 8.44851 0.0781172 11.9754C0.0796074 11.9927 0.0892935 12.0092 0.102705 12.0197C1.71956 13.2071 3.28576 13.9279 4.82288 14.4057C4.84748 14.4132 4.87354 14.4042 4.8892 14.384C5.2528 13.8874 5.57692 13.3639 5.85483 12.8133C5.87123 12.781 5.85557 12.7428 5.82205 12.73C5.30794 12.535 4.8184 12.2972 4.3475 12.0272C4.31026 12.0054 4.30727 11.9522 4.34154 11.9267C4.44063 11.8524 4.53976 11.7751 4.63438 11.6971C4.6515 11.6829 4.67535 11.6799 4.69548 11.6889C7.78909 13.1013 11.1383 13.1013 14.1954 11.6889C14.2155 11.6791 14.2394 11.6821 14.2573 11.6964C14.3519 11.7744 14.451 11.8524 14.5508 11.9267C14.5851 11.9522 14.5829 12.0054 14.5456 12.0272C14.0747 12.3025 13.5852 12.535 13.0703 12.7293C13.0368 12.742 13.0219 12.781 13.0383 12.8133C13.3222 13.3631 13.6463 13.8866 14.0032 14.3832C14.0181 14.4042 14.0449 14.4132 14.0695 14.4057C15.6141 13.9279 17.1803 13.2071 18.7971 12.0197C18.8113 12.0092 18.8202 11.9934 18.8217 11.9762C19.2159 7.89867 18.1616 4.35676 16.0269 1.21687C16.0216 1.20638 16.0127 1.19887 16.0023 1.19437ZM6.31681 9.8279C5.38542 9.8279 4.61798 8.97282 4.61798 7.92268C4.61798 6.87255 5.37053 6.01746 6.31681 6.01746C7.27051 6.01746 8.03052 6.88006 8.01561 7.92268C8.01561 8.97282 7.26306 9.8279 6.31681 9.8279ZM12.5979 9.8279C11.6666 9.8279 10.8991 8.97282 10.8991 7.92268C10.8991 6.87255 11.6517 6.01746 12.5979 6.01746C13.5517 6.01746 14.3117 6.88006 14.2968 7.92268C14.2968 8.97282 13.5517 9.8279 12.5979 9.8279Z" fill="white" fill-opacity="0.9"/>
</svg>
