<svg width="19" height="15" viewBox="0 0 19 15" fill="none" xmlns="http://www.w3.org/2000/svg"><path d="M16.002 1.194A15.6 15.6 0 0 0 12.155.001a.06.06 0 0 0-.062.03c-.166.295-.35.68-.48.983a14.4 14.4 0 0 0-4.32 0A10 10 0 0 0 6.805.03a.06.06 0 0 0-.062-.029c-1.35.233-2.642.64-3.848 1.193a.1.1 0 0 0-.025.022C.42 4.877-.251 8.45.078 11.976a.07.07 0 0 0 .025.044 15.7 15.7 0 0 0 4.72 2.386.06.06 0 0 0 .066-.022q.548-.745.966-1.57a.06.06 0 0 0-.033-.084 10 10 0 0 1-1.474-.703.06.06 0 0 1-.006-.1q.15-.113.292-.23a.06.06 0 0 1 .061-.008c3.094 1.412 6.443 1.412 9.5 0a.06.06 0 0 1 .062.007q.143.118.294.23a.06.06 0 0 1-.005.101c-.471.276-.96.508-1.476.702a.06.06 0 0 0-.032.084q.428.826.965 1.57a.06.06 0 0 0 .066.023 15.6 15.6 0 0 0 4.728-2.386.06.06 0 0 0 .025-.044c.394-4.077-.66-7.62-2.795-10.76a.05.05 0 0 0-.025-.022M6.317 9.828c-.932 0-1.699-.855-1.699-1.905s.753-1.906 1.699-1.906c.954 0 1.714.863 1.699 1.906 0 1.05-.753 1.905-1.7 1.905m6.28 0c-.93 0-1.698-.855-1.698-1.905s.753-1.906 1.699-1.906c.954 0 1.714.863 1.699 1.906 0 1.05-.745 1.905-1.7 1.905" fill="currentColor" fill-opacity=".9"/></svg>
